<svg xmlns="http://www.w3.org/2000/svg" version="1.1" xmlns:xlink="http://www.w3.org/1999/xlink" xmlns:svgjs="http://svgjs.dev/svgjs" width="1000" height="1000" viewBox="0 0 1000 1000"><rect width="1000" height="1000" fill="#ffffff"></rect><g transform="matrix(0.7,0,0,0.7,149.57575757575756,282.1265587044535)"><svg viewBox="0 0 396 247" data-background-color="#ffffff" preserveAspectRatio="xMidYMid meet" height="623" width="1000" xmlns="http://www.w3.org/2000/svg" xmlns:xlink="http://www.w3.org/1999/xlink"><g id="tight-bounds" transform="matrix(1,0,0,1,0.2400000000000091,-0.09999999999999432)"><svg viewBox="0 0 395.52 247.2" height="247.2" width="395.52"><g><svg></svg></g><g><svg viewBox="0 0 395.52 247.2" height="247.2" width="395.52"><g transform="matrix(1,0,0,1,121.48218151260504,47.215199999999996)"><svg viewBox="0 0 152.5556369747899 152.7696" height="152.7696" width="152.5556369747899"><g><svg viewBox="0 0 152.5556369747899 152.7696" height="152.7696" width="152.5556369747899"><g><svg viewBox="0 0 152.5556369747899 152.7696" height="152.7696" width="152.5556369747899"><g><svg viewBox="0 0 152.5556369747899 152.7696" height="152.7696" width="152.5556369747899"><g id="textblocktransform"><svg viewBox="0 0 152.5556369747899 152.7696" height="152.7696" width="152.5556369747899" id="textblock"><g><svg viewBox="0 0 152.5556369747899 152.7696" height="152.7696" width="152.5556369747899"><g transform="matrix(1,0,0,1,0,0)"><svg width="152.5556369747899" viewBox="2.25 -35.20000076293945 35.650001525878906 35.70000076293945" height="152.7696" data-palette-color="#89939e"><path d="M8.3 0.5Q8.2 0.5 8.13 0.38 8.05 0.25 8.1 0L8.1 0Q8.8-6.2 9.15-10.83 9.5-15.45 9.5-20.75L9.5-20.75Q9.5-24.6 9.28-26.78 9.05-28.95 8.5-29.95 7.95-30.95 6.95-30.95L6.95-30.95Q4.85-30.95 3.35-26.9L3.35-26.9Q3.15-26.3 3.03-26.1 2.9-25.9 2.6-25.9L2.6-25.9Q2.25-25.9 2.25-26.8L2.25-26.8Q2.25-28.75 3.18-30.7 4.1-32.65 5.6-33.93 7.1-35.2 8.7-35.2L8.7-35.2Q11.35-35.2 12.28-31.55 13.2-27.9 13.2-21.6L13.2-21.6Q13.2-17.6 12.75-10.8L12.75-10.8 12.85-10.8 17.15-20.05Q21.15-28.45 21.75-29.9L21.75-29.9Q22.2-30.8 23.1-31.68 24-32.55 24.73-32.93 25.45-33.3 25.35-32.8L25.35-32.8Q25.15-31.75 25.13-31.03 25.1-30.3 25.1-29.2L25.1-29.2Q25.1-26.5 25.23-22.95 25.35-19.4 25.5-17.25L25.5-17.25Q25.5-17.1 25.7-14.2L25.7-14.2Q26-10.45 26.15-7.85L26.15-7.85 26.25-7.85Q28.25-12.45 28.5-13.1L28.5-13.1 30.8-18.3 31.5-19.85Q32.7-22.65 33.27-24.33 33.85-26 33.85-27.65L33.85-27.65Q33.85-29 33.5-29.68 33.15-30.35 32.55-30.95L32.55-30.95Q32.4-31.05 33.1-32.15 33.8-33.25 34.68-34.23 35.55-35.2 36.1-35.2L36.1-35.2Q36.75-35.2 37.33-34.08 37.9-32.95 37.9-31.55L37.9-31.55Q37.9-30.4 37.4-28.88 36.9-27.35 35.9-25L35.9-25 26.65-4.2Q26.3-3.45 25.58-2.15 24.85-0.85 24.45-0.35L24.45-0.35Q24.15 0.05 23.75 0.28 23.35 0.5 23.2 0.5L23.2 0.5Q23 0.5 22.98 0.08 22.95-0.35 22.95-0.78 22.95-1.2 22.95-1.45L22.95-1.45Q22.95-4 22.65-8.68 22.35-13.35 22.25-15L22.25-15Q21.7-21.9 21.65-24.75L21.65-24.75 21.6-24.75Q19.8-21.15 16.38-13.7 12.95-6.25 12.1-4.1L12.1-4.1Q12-3.9 11.3-2.55 10.6-1.2 9.75-0.3L9.75-0.3Q9.35 0.1 8.93 0.3 8.5 0.5 8.3 0.5L8.3 0.5Z" opacity="1" transform="matrix(1,0,0,1,0,0)" fill="#89939e" class="undefined-text-0" data-fill-palette-color="primary" id="text-0"></path></svg></g></svg></g></svg></g></svg></g></svg></g></svg></g></svg></g><path d="M91.737 41.215L91.737 0 338.937 0 338.937 247.2 91.737 247.2 91.737 205.985 105.513 205.985 105.513 233.423 325.16 233.423 325.16 13.777 105.513 13.777 105.513 41.215Z" fill="#89939e" stroke="transparent" data-fill-palette-color="primary"></path></svg></g><defs></defs></svg><rect width="395.52" height="247.2" fill="none" stroke="none" visibility="hidden"></rect></g></svg></g></svg>