<svg xmlns="http://www.w3.org/2000/svg" version="1.1" xmlns:xlink="http://www.w3.org/1999/xlink" xmlns:svgjs="http://svgjs.dev/svgjs" width="1000" height="1000" viewBox="0 0 1000 1000"><rect width="1000" height="1000" fill="#ffffff"></rect><g transform="matrix(0.7,0,0,0.7,150.6187575198793,146.08680161943317)"><svg viewBox="0 0 244 247" data-background-color="#444444" preserveAspectRatio="xMidYMid meet" height="1012" width="1000" xmlns="http://www.w3.org/2000/svg" xmlns:xlink="http://www.w3.org/1999/xlink"><g id="tight-bounds" transform="matrix(1,0,0,1,-0.21568119264364327,-0.09999999999999432)"><svg viewBox="0 0 244.43135999999998 247.2" height="247.2" width="244.43135999999998"><g><svg></svg></g><g><svg viewBox="0 0 244.43135999999998 247.2" height="247.2" width="244.43135999999998"><g transform="matrix(1,0,0,1,0,66.0268967945824)"><svg viewBox="0 0 244.43135999999998 115.14620641083519" height="115.14620641083519" width="244.43135999999998"><g><svg viewBox="0 0 244.43135999999998 115.14620641083519" height="115.14620641083519" width="244.43135999999998"><g><svg viewBox="0 0 244.43135999999998 115.14620641083519" height="115.14620641083519" width="244.43135999999998"><g><svg viewBox="0 0 244.43135999999998 115.14620641083519" height="115.14620641083519" width="244.43135999999998"><g id="textblocktransform"><svg viewBox="0 0 244.43135999999998 115.14620641083519" height="115.14620641083519" width="244.43135999999998" id="textblock"><g><svg viewBox="0 0 244.43135999999998 115.14620641083519" height="115.14620641083519" width="244.43135999999998"><g transform="matrix(1,0,0,1,0,0)"><svg width="244.43135999999998" viewBox="2.5 -33.900001525878906 118.12358093261719 55.650001525878906" height="115.14620641083519" data-palette-color="#ffffff"><path d="M10.65-18.15Q10.65-18.15 11.2-16.5L11.2-16.5 11.85-14.6 14.6-20.1Q15.8-22.7 17-24.55 18.2-26.4 20.2-28.75L20.2-28.75Q20.8-29.45 21.58-29.83 22.35-30.2 23.15-30.2L23.15-30.2Q24.25-30.2 25.23-29.55 26.2-28.9 26.7-27.7L26.7-27.7Q26.85-27.3 27.2-26.6L27.2-26.6Q27.8-25.25 28.05-24.38 28.3-23.5 28.35-22.15L28.35-22.15Q28.4-20.15 28.75-17L28.75-17 29-14.1Q30.05-15 30.65-15.93 31.25-16.85 31.6-17.95L31.6-17.95Q32.3-19.8 33.15-22.5L33.15-22.5 34.65-27Q35.45-29.3 36.68-30.7 37.9-32.1 40-32.5L40-32.5Q40.4-32.6 40.9-32.6L40.9-32.6Q41.3-32.6 41.45-32.45 41.6-32.3 41.75-31.93 41.9-31.55 42.15-31.1L42.15-31.1Q42.7-30.15 42.7-29.4L42.7-29.4Q42.7-28.35 41.6-27.25L41.6-27.25Q39.95-25.65 39.08-23.75 38.2-21.85 37.1-18.65L37.1-18.65Q36.65-17.3 35.65-13.9L35.65-13.9Q34.3-9 33.4-6.8L33.4-6.8Q32.85-5.45 32.43-4.93 32-4.4 31.4-4.4L31.4-4.4Q30.75-4.4 29.2-5.25L29.2-5.25Q26.65-6.65 25.15-9.78 23.65-12.9 23.35-16.3L23.35-16.3 23.3-17.4Q23.1-20.1 22.9-22.1L22.9-22.1Q21.85-20.9 21.03-19.4 20.2-17.9 19.1-15.7L19.1-15.7Q18.2-13.8 17.95-13.35L17.95-13.35Q17.1-11.9 15.7-8.15L15.7-8.15Q14.35-4.65 13.85-3.75L13.85-3.75Q13.05-3.6 12.35-3.6L12.35-3.6Q10.85-3.6 9.95-4.5 9.05-5.4 8.45-7.4L8.45-7.4Q7.3-11.15 6.18-15.55 5.05-19.95 4.5-23.4L4.5-23.4Q4.35-24.4 3.95-25.55 3.55-26.7 3.45-27L3.45-27 2.95-28.45Q2.5-29.75 2.5-30.35L2.5-30.35Q2.5-30.9 2.88-31.35 3.25-31.8 4.15-32.45L4.15-32.45Q7.65-31.45 8.5-27.75L8.5-27.75Q8.9-26.15 9.6-22.95L9.6-22.95 10.65-18.15ZM61.15-2.55Q60.7-2.75 60.25-2.75L60.25-2.75Q59.8-2.75 59.47-2.53 59.15-2.3 58.75-1.85L58.75-1.85Q58.15-1.25 57.5-0.85L57.5-0.85Q56.9-0.5 55.3-0.2L55.3-0.2Q54.6-0.1 54.15-0.1L54.15-0.1Q52.05-0.1 49.77-1.03 47.5-1.95 46.55-3.25L46.55-3.25Q45.55-4.65 45.6-6.25L45.6-6.25Q45.65-8.65 47.6-11.05L47.6-11.05Q49.5-13.35 51.07-14.3 52.65-15.25 55.4-15.5L55.4-15.5Q56-15.5 57.12-15.7 58.25-15.9 58.25-16.25L58.25-16.25Q58.25-16.95 57.62-17.53 57-18.1 55.1-18.1L55.1-18.1Q54.4-18.1 53-18L53-18Q51.6-17.9 51.05-17.9L51.05-17.9Q49.35-17.9 48.6-18.45L48.6-18.45Q48.4-18.55 48.4-19.4L48.4-19.4Q48.4-20.9 49.45-21.3L49.45-21.3Q51.6-22.1 53.9-22.15L53.9-22.15Q56.8-22.15 59.27-20.88 61.75-19.6 62.9-17.7L62.9-17.7Q64.05-15.8 64.4-12.45L64.4-12.45Q64.8-8.7 64.8-2.9L64.8-2.9Q64.8-1.3 64.35-1.05L64.35-1.05Q63.95-0.8 63.6-0.8L63.6-0.8Q63.15-0.8 62.77-1.07 62.4-1.35 61.95-1.85L61.95-1.85Q61.5-2.4 61.15-2.55L61.15-2.55ZM53.25-3.15Q55.6-3.85 57.85-5.4L57.85-5.4Q58.35-5.75 58.75-6.3 59.15-6.85 59.25-7L59.25-7Q59.35-7.15 59.42-7.88 59.5-8.6 59.45-9.05L59.45-9.05Q59.4-9.2 59.27-9.85 59.15-10.5 58.9-11L58.9-11Q58.65-11.4 58.1-11.75 57.55-12.1 57.1-12.05L57.1-12.05Q56.15-12 55.05-11.35 53.95-10.7 53-9.6L53-9.6Q52.05-8.45 51.52-7.28 51-6.1 51-5.1L51-5.1Q51.1-3.75 51.75-3.3L51.75-3.3Q52.1-3.05 52.6-3.05L52.6-3.05Q53-3.05 53.25-3.15L53.25-3.15ZM78.9-24.7Q78.75-24.35 78.2-24.05 77.65-23.75 77.4-23.6L77.4-23.6Q77-23.75 76.25-24 75.5-24.25 75.1-24.55L75.1-24.55Q74.75-24.8 74.37-25.33 74-25.85 73.75-26.1L73.75-26.1Q74.05-26.3 74.45-26.65 74.85-27 75.2-27.2 75.55-27.4 75.85-27.4L75.85-27.4Q76.85-27.4 78.35-26.3L78.35-26.3Q78.65-26.05 78.85-25.53 79.05-25 78.9-24.7L78.9-24.7ZM76.95 16.6Q77.35 15.6 77.65 14L77.65 14 77.85 13Q77.3 10.95 76.25 5.5L76.25 5.5 75.95 3.95Q73.95-6.45 72.8-11.7L72.8-11.7Q72.6-12.7 72.65-13.7L72.65-13.7 72.7-15.45Q72.75-16 72.75-17.15L72.75-17.15Q72.75-18.4 73.47-18.75 74.2-19.1 75.5-19L75.5-19Q76.75-18.95 77.45-18.25 78.15-17.55 78.2-16.45L78.2-16.45 78.3-13.9Q78.5-8.8 78.82-5.23 79.15-1.65 80.2 1.85L80.2 1.85Q80.8 3.85 81.22 6.18 81.65 8.5 81.75 9L81.75 9Q82.35 12 82.6 13.5L82.6 13.5Q82.8 14.35 82.8 15.4L82.8 15.4Q82.8 18.8 80.15 20.7L80.15 20.7Q78.7 21.75 76.8 21.75L76.8 21.75Q74.75 21.75 72.35 20.5L72.35 20.5Q67.5 18 67.2 13.1L67.2 13.1Q67.2 12.75 67.15 12.38 67.1 12 67.1 11.65L67.1 11.65Q67.1 9.95 68.65 9.95L68.65 9.95Q69.25 9.95 69.57 10.35 69.9 10.75 70.12 11.33 70.35 11.9 70.55 12.25L70.55 12.25 71 13.15Q72.4 15.95 73.25 17L73.25 17Q74.15 18.25 75.1 18.25L75.1 18.25Q75.65 18.25 76.15 17.82 76.65 17.4 76.95 16.6L76.95 16.6ZM107.09-5.85Q107.19-5 107.84-3.65L107.84-3.65Q107.94-3.4 108.07-3.1 108.19-2.8 108.34-2.4L108.34-2.4Q106.64-1.45 105.64-1.45L105.64-1.45Q104.89-1.45 104.24-1.93 103.59-2.4 102.79-3.45L102.79-3.45Q102.19-4.15 101.79-4.15L101.79-4.15Q101.39-4.15 100.94-3.5L100.94-3.5Q99.94-2 98.47-1.25 96.99-0.5 95.34-0.5L95.34-0.5Q93.49-0.5 91.77-1.38 90.04-2.25 89.09-3.75L89.09-3.75Q88.09-5.3 88.09-8.35L88.09-8.35Q88.09-10.55 88.69-12.8 89.29-15.05 90.39-16.5L90.39-16.5Q91.59-18.15 93.24-19.13 94.89-20.1 96.89-20.1L96.89-20.1Q97.54-20.1 97.89-20.05L97.89-20.05Q98.04-20 98.34-20L98.34-20Q99.49-20 99.49-21.1L99.49-21.1 99.44-21.5Q98.74-27.25 98.19-29.95L98.19-29.95Q98.14-30.2 98.04-30.75 97.94-31.3 97.94-31.65L97.94-31.65Q97.94-32.35 98.24-32.88 98.54-33.4 99.29-33.75L99.29-33.75Q99.59-33.9 99.99-33.9L99.99-33.9Q101.04-33.9 102.19-33.23 103.34-32.55 103.54-31.7L103.54-31.7Q104.29-28.6 104.94-23.65L104.94-23.65 105.84-16.05Q106.64-9.25 107.09-5.85L107.09-5.85ZM93.74-12.1Q92.89-9.65 92.89-7.6L92.89-7.6Q92.89-4.75 94.89-3.4L94.89-3.4Q95.69-3.85 96.17-4.42 96.64-5 97.29-6.1L97.29-6.1 97.84-7.05Q98.99-8.7 99.37-10.75 99.74-12.8 99.84-15.95L99.84-15.95Q99.89-16.4 99.67-16.98 99.44-17.55 99.19-17.6L99.19-17.6Q98.79-17.7 97.84-17.38 96.89-17.05 96.64-16.7L96.64-16.7Q95.49-15.35 94.82-14.35 94.14-13.35 93.74-12.1L93.74-12.1ZM118.04-23.3Q117.94-23 117.32-22.65 116.69-22.3 116.29-22L116.29-22 114.89-22.75Q112.84-23.85 112.09-24.5L112.09-24.5Q111.69-24.8 111.69-25.25L111.69-25.25Q111.69-25.55 111.92-25.78 112.14-26 112.59-26L112.59-26Q114.54-26 117.34-25L117.34-25Q117.64-24.95 117.89-24.33 118.14-23.7 118.04-23.3L118.04-23.3ZM113.54-14Q113.69-14.65 113.74-14.95 113.79-15.25 113.79-15.6L113.79-15.6Q113.79-16.3 114.22-16.7 114.64-17.1 115.84-17.1L115.84-17.1Q117.24-17.1 118.32-16.23 119.39-15.35 119.64-13.95L119.64-13.95Q119.79-13.25 119.84-12.4 119.89-11.55 119.89-11.3L119.89-11.3 120.59-2.75Q120.74-1.4 120.22-0.68 119.69 0.05 118.24 0.05L118.24 0.05Q116.99 0.05 116.12-0.65 115.24-1.35 115.04-2.45L115.04-2.45 113.74-13.05 113.54-14Z" opacity="1" transform="matrix(1,0,0,1,0,0)" fill="#000000" class="undefined-text-0" data-fill-palette-color="primary" id="text-0"></path></svg></g></svg></g></svg></g></svg></g><g></g></svg></g></svg></g></svg></g><path d="M0 60.027L0 1 244.431 1 244.431 60.027 234.047 60.027 234.047 11.384 10.384 11.384 10.384 60.027 0 60.027M0 187.173L0 246.2 244.431 246.2 244.431 187.173 234.047 187.173 234.047 235.816 10.384 235.816 10.384 187.173 0 187.173" fill="#000000" stroke="transparent" data-fill-palette-color="primary"></path></svg></g><defs></defs></svg><rect width="244.43135999999998" height="247.2" fill="none" stroke="none" visibility="hidden"></rect></g></svg></g></svg>